<svg xmlns="http://www.w3.org/2000/svg" viewBox="0 0 477.39 477.39"><defs><style>.cls-1{fill:#b4e3f6;}.cls-2{fill:#2e3192;}.cls-3{fill:#8b5e3c;}.cls-4{fill:#fff;}</style></defs><title>Asset 1</title><g id="Layer_2" data-name="Layer 2"><g id="Layer_1-2" data-name="Layer 1"><circle class="cls-1" cx="238.7" cy="238.7" r="238.7"/><path class="cls-2" d="M448.58,352.47a238.78,238.78,0,0,1-418.64,2.06l76.42-3.38,117.33,4.43,76.67-3.38,87.33,2.57Z"/></g><g id="Layer_5" data-name="Layer 5"><polygon class="cls-3" points="425.13 317.95 419.81 348.77 411.05 377.73 368.8 379.06 269.71 384.37 156.95 380.65 109.51 378.52 114.83 365.57 103.14 348.24 84.01 333.89 84.01 325.39 18.13 308.39 23.7 303.07 88.26 320.08 192.14 331.24 225.88 335.75 247.93 329.91 288.84 337.88 315.67 337.08 342.5 336.02 362.69 332.03 373.1 323.15 425.13 317.95"/><polygon class="cls-3" points="173.27 182.99 148.83 346.64 155.21 346.64 179.65 160.68 173.27 182.99"/><polygon class="cls-3" points="305.04 356.21 299.73 155.36 290.17 155.36 290.17 139.42 297.61 130.92 297.61 101.17 305.04 133.05 315.67 137.3 315.67 146.86 308.23 160.68 315.67 356.21 305.04 356.21"/><polygon class="cls-4" points="148.83 202.12 167.19 223.76 164.7 240.41 158.01 235.86 154.15 232.94 153.62 225.76 146.71 215.94 148.83 202.12"/><polygon class="cls-4" points="171.95 230.55 179.65 240.41 178.06 249.94 173.81 245.69 168.27 247.29 170.99 226.54 171.95 230.55"/><polygon class="cls-4" points="299.73 155.36 301.32 173.43 296.54 183.26 291.5 183.26 291.5 171.04 295.48 155.36 299.73 155.36"/><polygon class="cls-4" points="309.04 181.96 315.67 188.57 317.53 200.79 310.2 212.52 309.04 181.96"/><polygon class="cls-4" points="300.84 197.24 290.17 221.26 291.5 230.28 290.17 235.86 291.5 245.69 296.41 245.69 299.46 240.41 300.84 231.88 301.32 221.26 300.84 197.24"/></g></g></svg>