<svg xmlns="http://www.w3.org/2000/svg" viewBox="0 0 477.39 477.39"><defs><style>.cls-1{fill:#b4e3f6;}.cls-2{fill:#2e3192;}.cls-3{fill:#a7a9ac;}.cls-4{fill:#58595b;}</style></defs><title>Asset 18</title><g id="Layer_2" data-name="Layer 2"><g id="Layer_1-2" data-name="Layer 1"><circle class="cls-1" cx="238.7" cy="238.7" r="238.7"/><path class="cls-2" d="M448.58,352.47a238.78,238.78,0,0,1-418.64,2.06l76.42-3.38,117.33,4.43,76.67-3.38,87.33,2.57Z"/></g><g id="Layer_24" data-name="Layer 24"><polygon class="cls-3" points="124.36 159.03 121.7 203.7 141.03 238.7 137.7 258.36 149.7 272.36 179.7 265.03 187.03 275.7 187.03 301.7 213.03 319.7 257.7 319.7 281.03 302.36 272.36 263.03 297.03 251.7 310.36 261.7 327.03 255.03 336.36 205.7 326.36 149.7 290.36 90.36 250.36 73.03 191.7 79.7 151.03 106.36 124.36 159.03"/><polygon class="cls-4" points="221.03 243.03 208.36 256.36 208.36 270.36 229.03 281.03 245.7 275.03 245.7 262.03 229.03 243.03 221.03 243.03"/><path class="cls-4" d="M164.36,196.36,197,217.7s-4.67,19.33-6.67,21-14,4.33-14,4.33L153.7,224.36Z"/><path class="cls-4" d="M253,219.7l34.67-32L301,214.36s-2,19.34-7.33,19.34-26.67,5-26.67,5Z"/></g></g></svg>