<svg xmlns="http://www.w3.org/2000/svg" viewBox="0 0 477.39 477.39"><defs><style>.cls-1{fill:#b4e3f6;}.cls-2{fill:#2e3192;}.cls-3{fill:#b0764e;}.cls-4{fill:#fff;}</style></defs><title>Asset 5</title><g id="Layer_2" data-name="Layer 2"><g id="Layer_1-2" data-name="Layer 1"><circle class="cls-1" cx="238.7" cy="238.7" r="238.7"/><path class="cls-2" d="M448.58,352.47a238.78,238.78,0,0,1-418.64,2.06l76.42-3.38,117.33,4.43,76.67-3.38,87.33,2.57Z"/></g><g id="Layer_6" data-name="Layer 6"><polygon class="cls-3" points="446.2 269.7 451.2 292.7 434.2 303.7 417.7 303.7 417.7 318.2 439.7 315.2 443.2 329.2 429.2 335.7 417.7 344.2 423.2 357.2 430.7 357.2 434.45 363.7 420.2 370.7 403.7 370.7 384.7 384.7 328.7 379.7 260.7 381.2 209.7 384.7 149.2 375.2 113.2 379.7 53.7 373.7 47.2 365.7 44.2 351.15 29.94 341.7 32.7 327.2 13.7 319.7 10.2 312.2 54.2 317.7 69.7 311.7 91.2 311.2 98.2 321.7 119.2 321.7 117.2 327.2 138.7 327.2 137.7 321.2 150.2 322.2 150.7 327.2 168.7 327.2 169.2 322.7 179.2 322.2 179.2 327.2 200.7 329.7 200.7 322.7 209.2 322.2 208.7 327.2 251.7 327.2 250.7 333.2 263.7 331.7 263.2 322.2 293.7 320.2 319.7 283.7 446.2 269.7"/><polygon class="cls-3" points="233.52 112.19 222.7 117.2 228.11 128.7 233.26 133.7 243.2 129.2 245.2 117.2 233.52 112.19"/><polygon class="cls-4" points="89.7 224.7 104.2 233.2 114.2 233.2 128.7 238.2 154.2 231.45 166.2 238.2 182.7 228.7 89.7 224.7"/><polygon class="cls-4" points="103.2 175.7 112.7 180.7 128.7 184.7 138.68 180.2 146.2 180.2 160.7 187.2 176.2 181.45 176.2 178.2 103.2 173.2 103.2 175.7"/><polygon class="cls-4" points="207.2 133.7 259.2 138.2 239.26 143.7 218.2 141.2 207.2 133.7"/><polygon class="cls-4" points="194.7 162.2 271.2 164.7 271.2 168.7 259.2 173.2 243.2 169.7 222.7 169.7 197.2 167.7 194.7 162.2"/><polygon class="cls-4" points="178.03 205.03 288.36 209.36 275.7 220.03 262.7 220.03 253.36 214.36 248.36 220.03 230.7 222.45 215.55 218.7 210.7 213.74 202.36 218.03 190.7 216.36 179.7 210.03 178.03 205.03"/><polygon class="cls-4" points="297.03 149.03 372.03 154.36 369.7 159.36 355.03 163.7 337.03 156.36 324.36 160.03 302.03 156.36 297.03 149.03"/><path class="cls-4" d="M286.36,197,393,201.7,381.36,209H370l-8-4-8.33,4L336,210.7l-11-4.25-6.67-2.59a37.9,37.9,0,0,1-6.66,2.59C309,207,297,205,297,205Z"/><polygon class="cls-3" points="143.2 138.2 121.7 338.2 128.7 338.2 146.2 138.2 143.2 138.2"/><polygon class="cls-3" points="233.7 97.7 230.7 347.2 243.2 347.2 236.95 97.7 233.7 97.7"/><polygon class="cls-3" points="330.2 117.2 350.7 295.7 359.2 295.7 333.7 119.7 330.2 117.2"/></g></g></svg>