<svg xmlns="http://www.w3.org/2000/svg" viewBox="0 0 477.39 477.39"><defs><style>.cls-1{fill:#b4e3f6;}.cls-2{fill:#2e3192;}.cls-3{fill:#00aeef;}.cls-4{fill:#fff;}</style></defs><title>Asset 13</title><g id="Layer_2" data-name="Layer 2"><g id="Layer_1-2" data-name="Layer 1"><circle class="cls-1" cx="238.7" cy="238.7" r="238.7"/></g><g id="Layer_12_copy_2" data-name="Layer 12 copy 2"><path class="cls-2" d="M192.92,261.51c0,45.18-31,81.8-69.33,81.8s-69.33-36.62-69.33-81.8,60.23-67.16,69.33-211.24C134.35,196.79,192.92,216.32,192.92,261.51Z"/><path class="cls-3" d="M164.58,237.28s28.82,37.15,6.41,62.77S143.45,321.18,143.45,318s-11.53-32.66,0-56.36S164.58,237.28,164.58,237.28Z"/><path class="cls-4" d="M165.86,269.31s10.25,1.28,7.69,16-13.24,17.29-14.63,15.37S168.42,277.63,165.86,269.31Z"/><path class="cls-2" d="M303.58,363.29c0,45.18-31,81.81-69.32,81.81s-69.33-36.63-69.33-81.81,60.22-67.15,69.33-211.23C245,298.58,303.58,318.11,303.58,363.29Z"/><path class="cls-3" d="M275.24,339.07s28.83,37.14,6.41,62.76S254.11,423,254.11,419.77s-11.53-32.67,0-56.36S275.24,339.07,275.24,339.07Z"/><path class="cls-4" d="M276.53,371.09s10.24,1.28,7.68,16S271,404.39,269.59,402.47,279.09,379.42,276.53,371.09Z"/><path class="cls-2" d="M423.28,266.17c0,45.18-31,81.81-69.33,81.81s-69.33-36.63-69.33-81.81S344.85,199,354,54.94C364.71,201.46,423.28,221,423.28,266.17Z"/><path class="cls-3" d="M394.94,242s28.82,37.15,6.41,62.76-27.54,21.14-27.54,17.94-11.53-32.67,0-56.36S394.94,242,394.94,242Z"/><path class="cls-4" d="M396.22,274s10.25,1.28,7.69,16-13.24,17.3-14.63,15.37S398.78,282.3,396.22,274Z"/></g></g></svg>