<svg xmlns="http://www.w3.org/2000/svg" viewBox="0 0 477.39 477.39"><defs><style>.cls-1{fill:#b4e3f6;}.cls-2{fill:#454c56;}.cls-3{fill:#dccd40;}.cls-4{fill:#dc1f26;}</style></defs><title>Asset 10</title><g id="Layer_2" data-name="Layer 2"><g id="Layer_1-2" data-name="Layer 1"><circle class="cls-1" cx="238.7" cy="238.7" r="238.7"/></g><g id="Layer_11" data-name="Layer 11"><polygon class="cls-2" points="130.24 110.2 121.36 146.51 82.7 265.84 185.11 270.51 207.05 248.72 270.8 251.31 290.65 275.7 396.2 275.7 358.05 150.66 347.6 110.2 130.24 110.2"/><polygon class="cls-2" points="85.2 297.2 116.2 358.2 352.7 366.7 385.7 301.7 381.7 297.2 290.2 294.2 90.7 290.2 85.2 297.2"/><path class="cls-3" d="M110.2,106.2h27.5l-10,39-37,115v30l-5.5,7,23,45.26,78.48-50.34L209.2,306.2l-71.5,49h64l25.5-15.5,11.5,8,9-5,25.5,16h57.5l-61.5-51,24.48-13.39,67.82,55.05,24.2-47.66,5-35L354.2,149.2l-10-39h30.5l13.5,47,13.5,5.5,5,15.5-5,25,15.5,51.5,11,1s8,28,8.5,29.5,0,17.5,0,17.5l-21.5,3-46,74h-23l-5-6-41.5-1.5-4.5,7.5-22.5-2.5-4-5.5-28,1-5.25,4.5-21.25-2.5-7.5-8-17,3.5-4.5,4.5-22.5.5-1.5-8.5h-35l-9,5h-13l-39-76.5-19-.5-5.5-22,13.5-24h5.5L78.2,190,76.7,174.7l8.5-17.5h5.5Z"/><polygon class="cls-3" points="188.7 264.7 209.7 243.7 270.7 246.2 289.7 269.7 390.7 269.7 385.7 301.7 289.7 296.49 263.7 314.7 261.2 325.7 240.7 317.7 221.7 325.7 217.2 311.7 186.68 292.12 82.7 290.2 85.2 265.2 188.7 264.7"/><polygon class="cls-3" points="126.3 149.55 164.7 149.55 187.7 184.7 179.2 198.7 152.2 198.7 146.2 185.7 131.7 206.2 143.7 228.2 187.7 233.36 225.2 189.95 202.2 149.55 167.7 126.7 212.7 116.7 204.7 110.2 136.2 110.2 126.3 149.55"/><polygon class="cls-3" points="329.7 186.2 324.2 201.2 297.2 201.2 286.2 186.2 316.2 153.2 355.41 153.2 344.2 110.2 272.2 110.2 264.2 116.2 312.7 129.7 275.2 151.2 253.7 183.7 284.2 233.36 333.2 233.36 344.7 213.2 329.7 186.2"/><polygon class="cls-3" points="238.81 165.7 258.7 143.7 296.7 131.2 259.2 118.7 248.7 110.2 228.2 110.2 218.7 118.2 181.7 128.7 225.2 143.2 238.81 165.7"/><polygon class="cls-2" points="214.7 269.7 195.2 284.7 211.7 296.7 232.2 284.7 214.7 269.7"/><polygon class="cls-2" points="232.2 299.7 236.7 290.2 244.7 299.7 232.2 299.7"/><polygon class="cls-2" points="247.7 284.7 259.7 269.7 283.7 287.2 268.2 293.2 265.7 288.2 256.7 294.2 247.7 284.7"/><polygon class="cls-4" points="225.2 227.2 239.2 200.7 253.7 227.2 225.2 227.2"/><polygon class="cls-4" points="169.7 242.95 181.7 258.2 192.2 242.95 169.7 242.95"/><polygon class="cls-4" points="283.7 246.2 291.7 258.2 304.55 243.7 283.7 246.2"/></g></g></svg>