<svg xmlns="http://www.w3.org/2000/svg" viewBox="0 0 477.39 477.39"><defs><style>.cls-1{fill:#b4e3f6;}.cls-2{fill:#2e3192;}.cls-3{fill:#231f20;}.cls-4{fill:#662d91;}</style></defs><title>Asset 14</title><g id="Layer_2" data-name="Layer 2"><g id="Layer_1-2" data-name="Layer 1"><circle class="cls-1" cx="238.7" cy="238.7" r="238.7"/><path class="cls-2" d="M448.58,352.47a238.78,238.78,0,0,1-418.64,2.06l76.42-3.38,117.33,4.43,76.67-3.38,87.33,2.57Z"/></g><g id="Layer_16" data-name="Layer 16"><polygon class="cls-3" points="48.36 363.7 82.36 360.36 116.36 368.36 154.36 368.36 198.36 385.7 239.7 385.7 258.36 373.03 299.03 385.7 315.03 392.36 327.03 387.03 346.36 378.36 378.36 367.03 413.03 367.03 440.09 360.36 444.58 352.47 357.7 354.36 302.36 352.38 239.03 356.36 179.04 354.04 106.36 351.15 34.32 354.16 48.36 363.7"/><path class="cls-4" d="M55,353.29S34.29,338.36,34.32,299.7s34-20,34-8.67-.66,43-6,23.83S47.07,278.21,45,308.11s27.33,45.18,27.33,45.18Z"/><path class="cls-4" d="M115.7,358.6s-12.67-11.12-9.34-36.29,1.34-61.16,24-45.16,8,31.33,8,31.33,1.34-12.67-6.66-14.67S115,314.15,117,322.31s0,31.5,18,36.84S115.7,358.6,115.7,358.6Z"/><path class="cls-4" d="M215,369s-19.33,13.46-26,5.39S165.7,319,171,294.36s3.33-60,30-60.66,19.33,18.66,19.33,24.66-12,20.64-14-2-16.72,32.36-16,49S215,369,215,369Z"/><path class="cls-4" d="M285.7,369.46s24-13.67,24-43.5-8-45.09-12-49.13-20-17.37,4-12.71,26.66,41.61,26.66,56.81S321,369.46,321,369.46,293.76,373.88,285.7,369.46Z"/><path class="cls-4" d="M381.38,354.85s23.91,2.66,26.14,0,1.67-4.22-3.89-30.47c-3.15-14.83,26.35-2.69,11.12-34.75C399.68,257.9,373,304,381.38,307.52s9.46-23,22.25-9.61S397,313.75,392.5,321s8.35,17.06,1.12,23.59S381.38,354.85,381.38,354.85Z"/><path class="cls-4" d="M261.69,354.94s10.67-9.91,10.67-30.58-9.33-34.66-18-34.66-18,31.33-9.33,22,19.33.57,16.67,10.62S249.48,355.7,244.25,356Z"/></g></g></svg>