<svg xmlns="http://www.w3.org/2000/svg" viewBox="0 0 477.39 477.39"><defs><style>.cls-1{fill:#b4e3f6;}.cls-2{fill:#9b8579;}.cls-3{fill:#6d6e71;}</style></defs><title>Asset 7</title><g id="Layer_2" data-name="Layer 2"><g id="Layer_1-2" data-name="Layer 1"><circle class="cls-1" cx="238.7" cy="238.7" r="238.7"/></g><g id="Layer_7" data-name="Layer 7"><polygon class="cls-2" points="137.2 134.7 340.7 134.7 385.2 243.7 385.2 272.2 374.2 272.2 367.2 355.2 107.2 355.2 100.7 265.2 91.7 264.2 88.7 249.2 137.2 134.7"/><polygon class="cls-3" points="118.7 249.7 165.7 249.7 180.7 134.7 199.7 134.7 196.2 249.7 281.2 253.7 288.2 238.7 288.2 145.7 283.2 134.7 304.7 134.7 312.7 187.7 312.7 253.7 358.7 253.7 334.2 174.7 324.7 134.7 340.7 134.7 385.2 243.7 385.2 272.2 118.7 272.2 100.7 265.2 91.7 264.2 88.7 249.2 137.2 134.7 156.7 134.7 124.7 224.7 118.7 249.7"/><polygon class="cls-3" points="367.2 355.2 374.2 272.2 356.2 272.2 350.2 355.2 367.2 355.2"/><polygon class="cls-3" points="297.2 355.2 308.2 272.2 283.2 272.2 279.2 355.2 297.2 355.2"/><polygon class="cls-3" points="194.7 355.2 194.7 272.2 166.7 272.2 176.7 355.2 194.7 355.2"/><polygon class="cls-3" points="124.2 272.2 126.7 355.2 107.2 355.2 100.7 265.2 124.2 272.2"/></g></g></svg>