<svg xmlns="http://www.w3.org/2000/svg" viewBox="0 0 477.39 477.39"><defs><style>.cls-1{fill:#b4e3f6;}.cls-2{fill:#895048;}.cls-3{fill:#494035;}</style></defs><title>Asset 8</title><g id="Layer_2" data-name="Layer 2"><g id="Layer_1-2" data-name="Layer 1"><circle class="cls-1" cx="238.7" cy="238.7" r="238.7"/></g><g id="Layer_9" data-name="Layer 9"><polygon class="cls-2" points="165.1 128.36 122.26 197.7 113.7 249.7 223.51 249.7 233.63 197.7 236.75 151.03 236.75 128.36 165.1 128.36"/><polygon class="cls-2" points="247.7 132.36 335 132.36 367.36 206.36 367.36 249.7 252.21 249.7 256.73 197.7 247.7 132.36"/><polygon class="cls-3" points="386.7 288.67 402.7 274 406.7 255.34 394.7 248.67 390.7 200.67 357.36 122 337.36 122.67 332.03 131.34 360.7 205.34 360.7 248.67 258.7 248.67 262.44 199.93 256.99 150.05 254.7 124 227.36 127.34 227.36 150 224.17 199.81 219.36 248.67 122.03 248.67 128.52 202.65 163.91 131.34 168.03 118.67 129.36 118.67 114.03 138 88.03 206 70.03 266 83.36 288.67 158.03 274 386.7 288.67"/><polyline class="cls-2" points="324.67 274.64 352.7 278.31 347.91 340.73 123.67 340.73 118.2 278.31 155.11 262.9"/><polygon class="cls-3" points="89.13 284.89 95.7 363.7 376.36 361.03 388.36 285.7 352.36 285.03 346.36 327.03 344.36 338.36 129.03 341.7 123.7 278.1 89.13 284.89"/><polygon class="cls-3" points="163.7 145.7 207.7 145.7 215.7 163.03 203.03 182.36 183.03 185.03 195.7 169.7 176.36 165.36 142.41 175.05 156.98 145.7 163.7 145.7"/><polygon class="cls-3" points="128.19 199.67 174.36 223.7 193.7 214.36 193.7 199.67 213.7 223.7 192.36 245.7 121.7 245.7 128.19 199.67"/><polygon class="cls-3" points="354.48 182.02 341.21 147.77 283.03 147.77 274.36 159.03 283.03 177.03 314.42 185.03 299.03 161.03 333.7 165.36 354.48 182.02"/><polygon class="cls-3" points="362.36 202.36 314.42 233.03 296.36 217.7 301.7 202.36 274.36 222.68 285.03 245.7 362.36 245.7 362.36 202.36"/><polygon class="cls-3" points="125.3 297.23 169.7 323.7 209.03 310.46 212.36 297.23 220.36 315.03 204.38 340.53 129.03 341.7 125.3 302.07 125.3 297.23"/><polygon class="cls-3" points="349.68 303.79 344.36 338.36 278.37 339.38 260.36 319.46 274.36 297.23 292.36 318.31 318.36 320.9 349.68 303.79"/></g></g></svg>