<svg xmlns="http://www.w3.org/2000/svg" viewBox="0 0 477.39 477.39"><defs><style>.cls-1{fill:#b4e3f6;}.cls-2{fill:#2e3192;}.cls-3{fill:#262262;}.cls-4{fill:#fff;}.cls-5{fill:#ee2a7b;}.cls-6{fill:#6b1346;}.cls-7{fill:#a7a9ac;}</style></defs><title>Asset 15</title><g id="Layer_2" data-name="Layer 2"><g id="Layer_1-2" data-name="Layer 1"><circle class="cls-1" cx="238.7" cy="238.7" r="238.7"/><path class="cls-2" d="M448.58,352.47a238.78,238.78,0,0,1-418.64,2.06l76.42-3.38,117.33,4.43,76.67-3.38,87.33,2.57Z"/></g><g id="Layer_18" data-name="Layer 18"><path class="cls-3" d="M103.7,364.7l30-50-8-29h30l7-41h22s72-98,117-86c38.32,10.21,28,49,27,70s-16,133-20,136S126.7,388.7,103.7,364.7Z"/><path class="cls-4" d="M170.36,339.7s-21.66-55,29.34-101,86.05-80.41,107-39-1,156-10,159S183.36,344.7,170.36,339.7Z"/><path class="cls-5" d="M188.12,299s62.71-107.75,95.15-89.17,5.41,123.85,5.41,123.85-32.39-24.13-77.85-22.3S188.12,299,188.12,299Z"/><path class="cls-6" d="M218.05,311s11.86-33.66,29.35-26,30.47,32.82,21.9,35.68S221.68,304.25,218.05,311Z"/><polygon class="cls-7" points="182.43 315.03 199.03 302.36 204.36 318.36 182.43 315.03"/><polygon class="cls-7" points="217.2 318.36 229.7 302.36 233.7 318.36 217.2 318.36"/><polygon class="cls-7" points="240.83 322.36 251.7 310.36 261.7 326.36 240.83 322.36"/><polygon class="cls-7" points="268.36 326.36 277.7 318.36 283.7 337.03 268.36 326.36"/><polygon class="cls-7" points="209.7 253.7 233.7 259.03 220.36 238.7 209.7 253.7"/><polygon class="cls-7" points="225.45 226.36 239.26 215.03 245.03 238.7 225.45 226.36"/><polygon class="cls-7" points="245.03 205.7 261.7 198.36 271.03 226.86 245.03 205.7"/><polygon class="cls-7" points="276.03 198.36 276.03 221.7 292.36 207.7 276.03 198.36"/><polygon class="cls-7" points="299.23 215.03 281.03 238.7 302.36 238.7 299.23 215.03"/><polygon class="cls-7" points="302.36 250.53 281.03 257.7 302.36 273.7 302.36 250.53"/><polygon class="cls-7" points="302.36 281.7 281.03 277.7 299.23 295.7 302.36 281.7"/><polygon class="cls-7" points="201.7 262.36 217.2 273.7 193.39 277.7 201.7 262.36"/></g></g></svg>