<svg xmlns="http://www.w3.org/2000/svg" viewBox="0 0 477.39 477.39"><defs><style>.cls-1{fill:#b4e3f6;}.cls-2{fill:#2e3192;}.cls-3{fill:#808285;}</style></defs><title>Asset 17</title><g id="Layer_2" data-name="Layer 2"><g id="Layer_1-2" data-name="Layer 1"><circle class="cls-1" cx="238.7" cy="238.7" r="238.7"/><path class="cls-2" d="M448.58,352.47a238.78,238.78,0,0,1-418.64,2.06l76.42-3.38,117.33,4.43,76.67-3.38,87.33,2.57Z"/></g><g id="Layer_21_copy" data-name="Layer 21 copy"><path class="cls-3" d="M84.15,257.57l27.18,18.23,22.34,2.58,33.46-3.11L166,269.39l-30.9-10.5,4.81-37.64,21-12.88,13.45-2.65-16.6-13.32,9-25.36L187,154.33l13.24,14L184,188.1l8.17,23.72L178.9,273,180,287.58,212.76,303,243,297l-3.81-19.34-14.43-11.13-20.16-.39-2.11-28.41,23.93-24.8,10.92,2.21,3.79-5.11-14.69-5.84,23.12-33.38L246.27,154,264,128.65l8.2,10.61-6.76,14.44,4.67,14.8-15,30,8.69,17.5L247.68,239.3,254,256.39l-5.07,22,10.11,22.47,11.83,4.65,4.4-8.73,19.17-4.65,4.42-17.47-15,3.83-4.51-9.59,11.44-4-7.7-12.45,6.62-24L319,221.74l-1.16-5.89-17.64-5.25-2-10.09L312.56,189l16.34-14.58.76,30.42,9.52,21.71-16.69,21.63s6.52,10.94,7.18,14.31-18.86,15.07-18.86,15.07l1.81,13.62,45,6.84,4.81,24.38-18.77,42.14L141.34,366l-22.4-47.12,7.46-24.18-24.34-8.3-33.53-32.7Z"/></g></g></svg>