<svg xmlns="http://www.w3.org/2000/svg" viewBox="0 0 477.39 477.39"><defs><style>.cls-5{fill:#d1d3d4}</style></defs><g id="Layer_1" data-name="Layer 1"><circle cx="238.7" cy="238.7" r="238.7" fill="#27aae1"/><path d="M515.89 509.78a238.78 238.78 0 0 1-418.65 2.05l76.42-3.37L291 512.88l76.68-3.38 87.32 2.58z" transform="translate(-67.3 -157.3)" fill="#2e3192"/></g><g id="Layer_3" data-name="Layer 3"><path fill="#603913" d="M80.2 324.45l2 4 32 12.25v4.25l11.5 4 9.75 15h2.5l9.75 15.25 42 2.25 47-3 55.25.25 68.25-.75 14.75-28 11.25-38.5-6.25 2.5-12 32.5-33.75 1.75.25-24.5-7-7.75-2.75-1-3.5 7.75-38.75 3.75-.25 3.25-2.25.25-1.25-10.5-1.25 5.5h-8l-6 12.75-9.75 6-17.5.25-3-153.5 8.25-3.75 1.75-14-12-2.75-2-25-3.5 2.5 1 22.75-12 4.5 3.5 11.5 9.75 3.5 1.25 154.75-66.5-.75-23.75-1.25-11.75-6.25-1 3-46-14.75z"/><path fill="#00aeef" d="M285.95 342.95v7l18.75-1.5v-7l-18.75 1.5z"/><path class="cls-5" d="M333.21 325.96l53.31-13.34.15-2.75-60.76 3.17 5.41 6.31 1.89 6.61zM217.95 192.45l-3 6.75 3 10-3 7 3 7.5 5 2.75v5l5.36 2.74-.31-37.75-6.37-6.24-3.68 2.25zM233.88 225.71v8.48l3.32-4.24-3.32-4.24z"/></g></svg>