<svg xmlns="http://www.w3.org/2000/svg" viewBox="0 0 477.39 477.39"><defs><style>.cls-1{fill:#b4e3f6;}.cls-2{fill:#2e3192;}.cls-3{fill:#8b5e3c;}.cls-4{fill:#00aeef;}.cls-5{fill:#d1d3d4;}</style></defs><title>Asset 4</title><g id="Layer_2" data-name="Layer 2"><g id="Layer_1-2" data-name="Layer 1"><circle class="cls-1" cx="238.7" cy="238.7" r="238.7"/><path class="cls-2" d="M448.58,352.47a238.78,238.78,0,0,1-418.64,2.06l76.42-3.38,117.33,4.43,76.67-3.38,87.33,2.57Z"/></g><g id="Layer_3" data-name="Layer 3"><polygon class="cls-3" points="80.2 324.45 82.2 328.45 114.2 340.7 114.2 344.95 125.7 348.95 135.45 363.95 137.95 363.95 147.7 379.2 189.7 381.45 236.7 378.45 291.95 378.7 360.2 377.95 374.95 349.95 386.2 311.45 379.95 313.95 367.95 346.45 334.2 348.2 334.45 323.7 327.45 315.95 324.7 314.95 321.2 322.7 282.45 326.45 282.2 329.7 279.95 329.95 278.7 319.45 277.45 324.95 269.45 324.95 263.45 337.7 253.7 343.7 236.2 343.95 233.2 190.45 241.45 186.7 243.2 172.7 231.2 169.95 229.2 144.95 225.7 147.45 226.7 170.2 214.7 174.7 218.2 186.2 227.95 189.7 229.2 344.45 162.7 343.7 138.95 342.45 127.2 336.2 126.2 339.2 80.2 324.45"/><polygon class="cls-4" points="285.95 342.95 285.95 349.95 304.7 348.45 304.7 341.45 285.95 342.95"/><polygon class="cls-5" points="333.21 325.96 386.52 312.62 386.67 309.87 325.91 313.04 331.32 319.35 333.21 325.96"/><polygon class="cls-5" points="217.95 192.45 214.95 199.2 217.95 209.2 214.95 216.2 217.95 223.7 222.95 226.45 222.95 231.45 228.31 234.19 228 196.44 221.63 190.2 217.95 192.45"/><polygon class="cls-5" points="233.88 225.71 233.88 234.19 237.2 229.95 233.88 225.71"/></g></g></svg>