<?xml version="1.0" standalone="no"?>
<!DOCTYPE svg PUBLIC "-//W3C//DTD SVG 20010904//EN"
 "http://www.w3.org/TR/2001/REC-SVG-20010904/DTD/svg10.dtd">
<svg version="1.0" xmlns="http://www.w3.org/2000/svg"
 width="478.000000pt" height="478.000000pt" viewBox="0 0 478.000000 478.000000"
 preserveAspectRatio="xMidYMid meet">
<metadata>
Created by potrace 1.11, written by Peter Selinger 2001-2013
</metadata>
<g transform="translate(0.000000,478.000000) scale(0.100000,-0.100000)"
fill="#000000" stroke="none">
<path d="M2238 4775 c-2 -1 -41 -6 -88 -10 -46 -3 -87 -8 -90 -10 -3 -1 -30
-6 -60 -9 -30 -4 -111 -20 -179 -37 -588 -144 -1085 -496 -1428 -1009 -206
-309 -338 -683 -380 -1075 -9 -86 -9 -396 1 -485 9 -89 45 -286 57 -319 6 -14
10 -26 9 -26 -10 0 54 -198 98 -305 163 -399 412 -727 756 -994 281 -218 671
-395 991 -450 17 -3 54 -10 83 -16 132 -25 466 -34 637 -17 126 12 359 63 490
106 846 280 1454 988 1610 1872 35 198 40 557 11 729 -3 14 -7 41 -10 60 -48
314 -186 661 -376 942 -49 73 -99 144 -112 158 -13 14 -36 41 -52 60 -59 73
-217 229 -293 290 -10 8 -39 31 -63 51 -100 79 -273 188 -400 250 -131 63
-356 150 -429 164 -9 2 -43 10 -76 18 -64 17 -168 36 -225 43 -19 2 -55 7 -80
10 -44 6 -396 14 -402 9z"/>
</g>
</svg>
